<svg width="50" height="50" viewBox="0 0 50 50" fill="none" xmlns="http://www.w3.org/2000/svg">
<path d="M18.6354 45.8336C15.1668 45.8604 12.0598 43.6929 10.8875 40.4283C9.71523 37.1638 10.7336 33.5148 13.4271 31.3292C11.5167 29.783 10.4067 27.4567 10.4067 24.999C10.4067 22.5413 11.5167 20.215 13.4271 18.6688C10.7328 16.4838 9.71375 12.8347 10.8863 9.56994C12.0588 6.30522 15.1666 4.13818 18.6354 4.16641H31.3646C34.8334 4.13818 37.9412 6.30522 39.1137 9.56994C40.2862 12.8347 39.2672 16.4838 36.5729 18.6688C39.2664 20.8544 40.2848 24.5034 39.1125 27.7679C37.9402 31.0325 34.8332 33.2 31.3646 33.1729C29.7625 33.1749 28.1947 32.7086 26.8542 31.8313V37.6646C26.8346 42.1875 23.1583 45.8414 18.6354 45.8336ZM18.5896 33.175C16.122 33.214 14.1494 35.2391 14.1752 37.7069C14.2011 40.1747 16.2157 42.158 18.6837 42.1453C21.1516 42.1325 23.1455 40.1284 23.1458 37.6604V33.175H18.5875H18.5896ZM31.3667 20.5146C28.8925 20.5272 26.8958 22.541 26.9042 25.0152C26.9126 27.4894 28.9229 29.4896 31.3972 29.4854C33.8714 29.4812 35.875 27.4743 35.875 25C35.8658 22.5168 33.8478 20.51 31.3646 20.5146H31.3667ZM18.6375 20.5145C17.035 20.506 15.5497 21.3531 14.741 22.7366C13.9324 24.1201 13.9232 25.8299 14.7171 27.222C15.5109 28.6141 16.9871 29.4769 18.5896 29.4854H23.1458V20.5145H18.6375ZM26.8542 7.85419V16.8272H31.3625C33.774 16.8384 35.7636 14.9426 35.8687 12.5334V13.4396V12.3396C35.8584 9.85935 33.8449 7.85419 31.3646 7.85419H26.8542ZM18.6333 7.85419C17.0308 7.85419 15.5501 8.7091 14.7488 10.0969C13.9476 11.4847 13.9476 13.1945 14.7488 14.5823C15.5501 15.9701 17.0308 16.825 18.6333 16.825H23.1458V7.85419H18.6333Z" fill="#2E3A59"/>
</svg>
