<svg width="50" height="50" viewBox="0 0 50 50" fill="none" xmlns="http://www.w3.org/2000/svg">
<path d="M6 6H43.5V43.5H6V6Z" fill="#2E3A59"/>
<path d="M11.7216 33V15.5455H18.267C19.608 15.5455 20.733 15.7955 21.642 16.2955C22.5568 16.7955 23.2472 17.483 23.7131 18.358C24.1847 19.2273 24.4205 20.2159 24.4205 21.3239C24.4205 22.4432 24.1847 23.4375 23.7131 24.3068C23.2415 25.1761 22.5455 25.8608 21.625 26.3608C20.7045 26.8551 19.571 27.1023 18.2244 27.1023H13.8864V24.5028H17.7983C18.5824 24.5028 19.2244 24.3665 19.7244 24.0938C20.2244 23.821 20.5938 23.446 20.8324 22.9688C21.0767 22.4915 21.1989 21.9432 21.1989 21.3239C21.1989 20.7045 21.0767 20.1591 20.8324 19.6875C20.5938 19.2159 20.2216 18.8494 19.7159 18.5881C19.2159 18.321 18.571 18.1875 17.7812 18.1875H14.8835V33H11.7216ZM37.3771 23.3693L34.5646 23.6761C34.4851 23.392 34.3459 23.125 34.147 22.875C33.9538 22.625 33.6925 22.4233 33.3629 22.2699C33.0334 22.1165 32.63 22.0398 32.1527 22.0398C31.5107 22.0398 30.9709 22.179 30.5334 22.4574C30.1016 22.7358 29.8885 23.0966 29.8942 23.5398C29.8885 23.9205 30.0277 24.2301 30.3118 24.4688C30.6016 24.7074 31.0788 24.9034 31.7436 25.0568L33.9766 25.5341C35.2152 25.8011 36.1357 26.2244 36.7379 26.804C37.3459 27.3835 37.6527 28.142 37.6584 29.0795C37.6527 29.9034 37.4112 30.6307 36.9339 31.2614C36.4624 31.8864 35.8061 32.375 34.9652 32.7273C34.1243 33.0795 33.1584 33.2557 32.0675 33.2557C30.4652 33.2557 29.1754 32.9205 28.1982 32.25C27.2209 31.5739 26.6385 30.6335 26.451 29.429L29.4595 29.1392C29.5959 29.7301 29.8857 30.1761 30.3288 30.4773C30.772 30.7784 31.3487 30.929 32.0589 30.929C32.7919 30.929 33.38 30.7784 33.8232 30.4773C34.272 30.1761 34.4964 29.804 34.4964 29.3608C34.4964 28.9858 34.3516 28.6761 34.0618 28.4318C33.7777 28.1875 33.3345 28 32.7322 27.8693L30.4993 27.4006C29.2436 27.1392 28.3146 26.6989 27.7124 26.0795C27.1101 25.4545 26.8118 24.6648 26.8175 23.7102C26.8118 22.9034 27.0305 22.2045 27.4737 21.6136C27.9226 21.017 28.5447 20.5568 29.3402 20.233C30.1413 19.9034 31.0646 19.7386 32.1101 19.7386C33.6442 19.7386 34.8516 20.0653 35.7322 20.7188C36.6186 21.3722 37.1669 22.2557 37.3771 23.3693Z" fill="white"/>
</svg>
